# xmcd
#
# Track frame offsets:
#	150
#	901
#	24041
#	47288
#	71653
#	93029
#	115778
#	138813
#	161224
#	183539
#	203829
#	223749
#	246346
#	270925
#	295515
#	319781
#
# Disc length: 4638 seconds
#
# Revision: 0
# Processed by: cddbd v1.5.2PL0 Copyright (c) Steve Scherf et al.
# Submitted via: dBpowerAMP V4.0
#
DISCID=cc121c10
DTITLE=Sue Monk Kidd - Honungsbiets Hemliga Liv
DYEAR=1900
DGENRE=Speech
TTITLE0=CD1 Track01
TTITLE1=CD1 Track02
TTITLE2=CD1 Track03
TTITLE3=CD1 Track04
TTITLE4=CD1 Track05
TTITLE5=CD1 Track06
TTITLE6=CD1 Track07
TTITLE7=CD1 Track08
TTITLE8=CD1 Track09
TTITLE9=CD1 Track10
TTITLE10=CD1 Track11
TTITLE11=CD1 Track12
TTITLE12=CD1 Track13
TTITLE13=CD1 Track14
TTITLE14=CD1 Track15
TTITLE15=CD1 Track16
EXTD=
EXTT0=
EXTT1=
EXTT2=
EXTT3=
EXTT4=
EXTT5=
EXTT6=
EXTT7=
EXTT8=
EXTT9=
EXTT10=
EXTT11=
EXTT12=
EXTT13=
EXTT14=
EXTT15=
PLAYORDER=
